# xmcd
#
# Track frame offsets: 
#        150
#        15408
#        33622
#        48589
#        66169
#        84285
#        107804
#        122687
#        138033
#        158151
#        174420
#        192603
#        212245
#        227920
#        246488
#        265407
#        287439
#        303880
#
# Disc length: 4331 seconds
#
# Revision: 2
# Processed by: cddbd v1.5.2PL0 Copyright (c) Steve Scherf et al.
# Submitted via: ExactAudioCopy v1.3
#
DISCID=fd10e912
DTITLE=Various Artist - Blues Revue sampler, Aug-Sep 2007
DYEAR=2007
DGENRE=Blues
TTITLE0=The Matt Schofield Trio - Troublemaker
TTITLE1=John "Juke" Logan - Tend to my bid'ness
TTITLE2=Kara Maguire - He knows how to do it right
TTITLE3=Hans Theessink - Cry cry cry
TTITLE4=Tas Cru - Tired of bluesmen cryin'
TTITLE5=Gwyn Ashton - Prohibition
TTITLE6=Terry "Big T" Williams and Wesley "Junebug" Jefferson - Incarcer
TTITLE6=ated blues
TTITLE7=Michael Bram and The Alternators - Watch out!
TTITLE8=Doc MacLean - Angola prison rodeo
TTITLE9=J. Hill and Hartling - Soul of a man
TTITLE10=Alvin Jett and The Phat Noiz Blues Band - Angels sing the blues
TTITLE11=Sir Lawrence - Cheating is a risky business
TTITLE12=Reverend Rocky Zharp - Show me
TTITLE13=Felony Blues Band - Chicken woman
TTITLE14=Scott Ellison - Who will be the fool
TTITLE15=Swamp Cabbage - The Jesus tone
TTITLE16=Kolvane - They called me evil
TTITLE17=Mac Arnold - I can do anything
EXTD=
EXTT0=
EXTT1=
EXTT2=
EXTT3=
EXTT4=
EXTT5=
EXTT6=
EXTT7=
EXTT8=
EXTT9=
EXTT10=
EXTT11=
EXTT12=
EXTT13=
EXTT14=
EXTT15=
EXTT16=
EXTT17=
PLAYORDER=
